<svg width="14.500000" height="1.500122" viewBox="0 0 14.5 1.50012" fill="none" xmlns="http://www.w3.org/2000/svg" xmlns:xlink="http://www.w3.org/1999/xlink">
	<desc>
			Created with Pixso.
	</desc>
	<defs/>
	<path id="Vector" d="M7.25 0L7.62 0L8 0L13.75 0C13.94 0 14.13 0.07 14.28 0.21C14.42 0.36 14.5 0.55 14.5 0.75C14.5 0.94 14.42 1.13 14.28 1.28C14.13 1.42 13.94 1.5 13.75 1.5L8 1.5L7.62 1.5L7.25 1.5L6.87 1.5L6.5 1.5L0.75 1.5C0.55 1.5 0.36 1.42 0.21 1.28C0.07 1.13 0 0.94 0 0.75C0 0.55 0.07 0.36 0.21 0.21C0.36 0.07 0.55 0 0.75 0L6.5 0L6.87 0L7.25 0Z" fill="#020A0A" fill-opacity="1.000000" fill-rule="nonzero"/>
</svg>
