<svg width="14.500000" height="14.500000" viewBox="0 0 14.5 14.5" fill="none" xmlns="http://www.w3.org/2000/svg" xmlns:xlink="http://www.w3.org/1999/xlink">
	<desc>
			Created with Pixso.
	</desc>
	<defs/>
	<path id="Vector" d="M7.25 0C7.44 0 7.63 0.07 7.78 0.21C7.92 0.36 8 0.55 8 0.75L8 6.5L13.75 6.5C13.94 6.5 14.13 6.57 14.28 6.71C14.42 6.86 14.5 7.05 14.5 7.25C14.5 7.44 14.42 7.63 14.28 7.78C14.13 7.92 13.94 8 13.75 8L8 8L8 13.75C8 13.94 7.92 14.13 7.78 14.28C7.63 14.42 7.44 14.5 7.25 14.5C7.05 14.5 6.86 14.42 6.71 14.28C6.57 14.13 6.5 13.94 6.5 13.75L6.5 8L0.75 8C0.55 8 0.36 7.92 0.21 7.78C0.07 7.63 0 7.44 0 7.25C0 7.05 0.07 6.86 0.21 6.71C0.36 6.57 0.55 6.5 0.75 6.5L6.5 6.5L6.5 0.75C6.5 0.55 6.57 0.36 6.71 0.21C6.86 0.07 7.05 0 7.25 0Z" fill="#020A0A" fill-opacity="1.000000" fill-rule="nonzero"/>
</svg>
